<svg xmlns="http://www.w3.org/2000/svg" viewBox="0 0 400 300">
  <rect width="400" height="300" fill="#E8E8E8"></rect>
  
  <rect x="180" y="40" width="40" height="220" fill="#1A1A1A"></rect>
  
  <rect x="120" y="180" width="160" height="80" fill="#F5C344" stroke="#1A1A1A" stroke-width="4"></rect>
  
  <g fill="#1A1A1A">
    <polygon points="130,200 145,200 135,220 120,220"></polygon>
    <polygon points="160,200 175,200 165,220 150,220"></polygon>
    <polygon points="190,200 205,200 195,220 180,220"></polygon>
    <polygon points="220,200 235,200 225,220 210,220"></polygon>
    <polygon points="250,200 265,200 255,220 240,220"></polygon>
  </g>
  
  <circle cx="135" cy="240" r="5" fill="#1A1A1A"></circle>
  <circle cx="265" cy="240" r="5" fill="#1A1A1A"></circle>
  <rect x="0" y="260" width="400" height="40" fill="#1A1A1A"></rect>
  <text x="200" y="285" font-family="JetBrains Mono,monospace" font-size="11" fill="#F5C344" text-anchor="middle" letter-spacing="3">COLUMN PROTECTOR</text>
</svg>