<svg xmlns="http://www.w3.org/2000/svg" viewBox="0 0 400 300">
  <rect width="400" height="300" fill="#E8E8E8"></rect>
  
  <rect x="40" y="60" width="320" height="180" fill="none" stroke="#1A1A1A" stroke-width="6"></rect>
  
  <g stroke="#A93800" stroke-width="1.5">
    <line x1="40" y1="80" x2="360" y2="80"></line>
    <line x1="40" y1="100" x2="360" y2="100"></line>
    <line x1="40" y1="120" x2="360" y2="120"></line>
    <line x1="40" y1="140" x2="360" y2="140"></line>
    <line x1="40" y1="160" x2="360" y2="160"></line>
    <line x1="40" y1="180" x2="360" y2="180"></line>
    <line x1="40" y1="200" x2="360" y2="200"></line>
    <line x1="40" y1="220" x2="360" y2="220"></line>
    <line x1="60" y1="60" x2="60" y2="240"></line>
    <line x1="80" y1="60" x2="80" y2="240"></line>
    <line x1="100" y1="60" x2="100" y2="240"></line>
    <line x1="120" y1="60" x2="120" y2="240"></line>
    <line x1="140" y1="60" x2="140" y2="240"></line>
    <line x1="160" y1="60" x2="160" y2="240"></line>
    <line x1="180" y1="60" x2="180" y2="240"></line>
    <line x1="200" y1="60" x2="200" y2="240"></line>
    <line x1="220" y1="60" x2="220" y2="240"></line>
    <line x1="240" y1="60" x2="240" y2="240"></line>
    <line x1="260" y1="60" x2="260" y2="240"></line>
    <line x1="280" y1="60" x2="280" y2="240"></line>
    <line x1="300" y1="60" x2="300" y2="240"></line>
    <line x1="320" y1="60" x2="320" y2="240"></line>
    <line x1="340" y1="60" x2="340" y2="240"></line>
  </g>
  
  <rect x="40" y="240" width="320" height="12" fill="#1A1A1A"></rect>
  <rect x="0" y="252" width="400" height="48" fill="#1A1A1A"></rect>
  <text x="200" y="284" font-family="JetBrains Mono,monospace" font-size="11" fill="#F5C344" text-anchor="middle" letter-spacing="3">WIRE DECKING · 2,500 LBS</text>
</svg>